{
  "source": "C:\\Users\\Peter\\Desktop\\stuff\\MIUN\\quantitative_research\\video_compression\\videos\\BVI-HD\\BVI-HD_CDVL_videos\\ORIG\\CloudsZoom_1920x1080_60fps.mp4",
  "output": "C:\\Users\\Peter\\Desktop\\stuff\\MIUN\\quantitative_research\\video_compression\\compressed_videos\\BVI-HD\\vp9\\4\\CloudsZoom_1920x1080_60fps_vp9.webm",
  "codec": "vp9",
  "ok": "Input #0, mov,mp4,m4a,3gp,3g2,mj2, from 'C:\\Users\\Peter\\Desktop\\stuff\\MIUN\\quantitative_research\\video_compression\\videos\\BVI-HD\\BVI-HD_CDVL_videos\\ORIG\\CloudsZoom_1920x1080_60fps.mp4':\n  Metadata:\n    major_brand     : isom\n    minor_version   : 512\n    compatible_brands: isomiso2avc1mp41\n    encoder         : Lavf54.28.101\n  Duration: 00:00:05.00, start: 0.000000, bitrate: 32589 kb/s\n  Stream #0:0[0x1](und): Video: h264 (High 4:4:4 Predictive) (avc1 / 0x31637661), yuv420p(progressive), 1920x1080, 32586 kb/s, 60 fps, 60 tbr, 60 tbn (default)\n    Metadata:\n      handler_name    : VideoHandler\n      vendor_id       : [0][0][0][0]\n[out#0/webm @ 0000028ac19c9780] Codec AVOption b:a (set bitrate (in bits/s)) has not been used for any stream. The most likely reason is either wrong type (e.g. a video option with no video streams) or that it is a private option of some decoder which was not actually used for any stream.\nStream mapping:\n  Stream #0:0 -> #0:0 (h264 (native) -> vp9 (libvpx-vp9))\nPress [q] to stop, [?] for help\n[libvpx-vp9 @ 0000028ac1f44b40] v1.15.2-100-g40561f514\nOutput #0, webm, to 'C:\\Users\\Peter\\Desktop\\stuff\\MIUN\\quantitative_research\\video_compression\\compressed_videos\\BVI-HD\\vp9\\4\\CloudsZoom_1920x1080_60fps_vp9.webm':\n  Metadata:\n    major_brand     : isom\n    minor_version   : 512\n    compatible_brands: isomiso2avc1mp41\n    encoder         : Lavf62.3.100\n  Stream #0:0(und): Video: vp9, yuv420p(tv, progressive), 1920x1080, q=2-31, 4000 kb/s, 60 fps, 1k tbn (default)\n    Metadata:\n      encoder         : Lavc62.11.100 libvpx-vp9\n      handler_name    : VideoHandler\n      vendor_id       : [0][0][0][0]\n    Side data:\n      cpb: bitrate max/min/avg: 0/0/0 buffer size: 4000000 vbv_delay: N/A\nframe=    0 fps=0.0 q=0.0 size=       0KiB time=N/A bitrate=N/A speed=N/A elapsed=0:00:00.52    \nframe=   10 fps=8.6 q=25.0 size=       1KiB time=00:00:00.15 bitrate=  33.8kbits/s speed=0.128x elapsed=0:00:01.16    \nframe=   16 fps=9.3 q=15.0 size=       1KiB time=00:00:00.26 bitrate=  19.0kbits/s speed=0.155x elapsed=0:00:01.71    \nframe=   21 fps=9.3 q=12.0 size=       1KiB time=00:00:00.35 bitrate=  14.5kbits/s speed=0.154x elapsed=0:00:02.26    \nframe=   26 fps=9.2 q=12.0 size=       1KiB time=00:00:00.41 bitrate=  12.2kbits/s speed=0.147x elapsed=0:00:02.83    \nframe=   31 fps=9.1 q=12.0 size=       1KiB time=00:00:00.51 bitrate=   9.8kbits/s speed=0.151x elapsed=0:00:03.41    \nframe=   36 fps=9.1 q=12.0 size=       1KiB time=00:00:00.60 bitrate=   8.4kbits/s speed=0.152x elapsed=0:00:03.94    \nframe=   43 fps=9.6 q=11.0 size=       1KiB time=00:00:00.71 bitrate=   7.1kbits/s speed=0.16x elapsed=0:00:04.47    \nframe=   48 fps=9.6 q=12.0 size=       1KiB time=00:00:00.80 bitrate=   6.3kbits/s speed=0.16x elapsed=0:00:05.00    \nframe=   53 fps=9.5 q=13.0 size=       1KiB time=00:00:00.88 bitrate=   5.7kbits/s speed=0.159x elapsed=0:00:05.56    \nframe=   59 fps=9.6 q=12.0 size=       1KiB time=00:00:00.98 bitrate=   5.1kbits/s speed=0.161x elapsed=0:00:06.11    \nframe=   64 fps=9.6 q=12.0 size=       1KiB time=00:00:01.06 bitrate=   4.7kbits/s speed=0.161x elapsed=0:00:06.64    \nframe=   71 fps=9.9 q=11.0 size=       1KiB time=00:00:01.18 bitrate=   4.3kbits/s speed=0.165x elapsed=0:00:07.15    \nframe=   76 fps=9.9 q=12.0 size=       1KiB time=00:00:01.25 bitrate=   4.1kbits/s speed=0.162x elapsed=0:00:07.69    \nframe=   82 fps=9.9 q=12.0 size=       1KiB time=00:00:01.35 bitrate=   3.8kbits/s speed=0.163x elapsed=0:00:08.27    \nframe=   87 fps=9.9 q=11.0 size=       1KiB time=00:00:01.45 bitrate=   3.5kbits/s speed=0.165x elapsed=0:00:08.81    \nframe=   93 fps= 10 q=11.0 size=       1KiB time=00:00:01.55 bitrate=   3.3kbits/s speed=0.166x elapsed=0:00:09.32    \nframe=   97 fps=9.8 q=4.0 size=       1KiB time=00:00:01.61 bitrate=   3.1kbits/s speed=0.163x elapsed=0:00:09.93    \nframe=  103 fps=9.8 q=12.0 size=       1KiB time=00:00:01.71 bitrate=   2.9kbits/s speed=0.164x elapsed=0:00:10.48    \nframe=  110 fps= 10 q=13.0 size=       1KiB time=00:00:01.83 bitrate=   2.8kbits/s speed=0.167x elapsed=0:00:11.01    \nframe=  117 fps= 10 q=12.0 size=       1KiB time=00:00:01.95 bitrate=   2.6kbits/s speed=0.169x elapsed=0:00:11.53    \nframe=  123 fps= 10 q=12.0 size=       1KiB time=00:00:02.05 bitrate=   2.5kbits/s speed=0.17x elapsed=0:00:12.07    \nframe=  128 fps= 10 q=12.0 size=       1KiB time=00:00:02.13 bitrate=   2.4kbits/s speed=0.169x elapsed=0:00:12.60    \nframe=  138 fps= 10 q=13.0 size=     512KiB time=00:00:02.30 bitrate=1823.6kbits/s speed=0.175x elapsed=0:00:13.15    \nframe=  146 fps= 11 q=12.0 size=     512KiB time=00:00:02.43 bitrate=1723.7kbits/s speed=0.178x elapsed=0:00:13.68    \nframe=  151 fps= 11 q=13.0 size=     512KiB time=00:00:02.51 bitrate=1666.6kbits/s speed=0.177x elapsed=0:00:14.20    \nframe=  156 fps= 11 q=11.0 size=     512KiB time=00:00:02.60 bitrate=1613.2kbits/s speed=0.176x elapsed=0:00:14.80    \nframe=  163 fps= 11 q=12.0 size=     512KiB time=00:00:02.71 bitrate=1543.9kbits/s speed=0.177x elapsed=0:00:15.36    \nframe=  170 fps= 11 q=12.0 size=     512KiB time=00:00:02.83 bitrate=1480.3kbits/s speed=0.178x elapsed=0:00:15.90    \nframe=  176 fps= 11 q=4.0 size=     512KiB time=00:00:02.93 bitrate=1429.9kbits/s speed=0.178x elapsed=0:00:16.44    \nframe=  182 fps= 11 q=12.0 size=     512KiB time=00:00:03.03 bitrate=1382.7kbits/s speed=0.179x elapsed=0:00:16.97    \nframe=  187 fps= 11 q=12.0 size=     512KiB time=00:00:03.11 bitrate=1345.8kbits/s speed=0.178x elapsed=0:00:17.51    \nframe=  192 fps= 11 q=11.0 size=     512KiB time=00:00:03.20 bitrate=1310.7kbits/s speed=0.177x elapsed=0:00:18.03    \nframe=  199 fps= 11 q=11.0 size=     512KiB time=00:00:03.31 bitrate=1264.6kbits/s speed=0.179x elapsed=0:00:18.56    \nframe=  205 fps= 11 q=12.0 size=     512KiB time=00:00:03.40 bitrate=1233.6kbits/s speed=0.178x elapsed=0:00:19.11    \nframe=  211 fps= 11 q=11.0 size=     512KiB time=00:00:03.51 bitrate=1192.7kbits/s speed=0.179x elapsed=0:00:19.67    \nframe=  216 fps= 11 q=12.0 size=     512KiB time=00:00:03.58 bitrate=1170.5kbits/s speed=0.177x elapsed=0:00:20.25    \nframe=  222 fps= 11 q=12.0 size=     512KiB time=00:00:03.70 bitrate=1133.6kbits/s speed=0.178x elapsed=0:00:20.80    \nframe=  226 fps= 11 q=11.0 size=     512KiB time=00:00:03.76 bitrate=1113.5kbits/s speed=0.176x elapsed=0:00:21.35    \nframe=  233 fps= 11 q=12.0 size=     512KiB time=00:00:03.88 bitrate=1080.1kbits/s speed=0.177x elapsed=0:00:21.89    \nframe=  239 fps= 11 q=13.0 size=     512KiB time=00:00:03.98 bitrate=1053.0kbits/s speed=0.177x elapsed=0:00:22.44    \nframe=  245 fps= 11 q=12.0 size=     512KiB time=00:00:04.08 bitrate=1027.2kbits/s speed=0.178x elapsed=0:00:22.98    \nframe=  252 fps= 11 q=12.0 size=     512KiB time=00:00:04.18 bitrate=1002.6kbits/s speed=0.178x elapsed=0:00:23.49    \nframe=  256 fps= 11 q=12.0 size=     512KiB time=00:00:04.26 bitrate= 983.0kbits/s speed=0.177x elapsed=0:00:24.05    \nframe=  263 fps= 11 q=12.0 size=    1536KiB time=00:00:04.36 bitrate=2881.6kbits/s speed=0.178x elapsed=0:00:24.57    \nframe=  268 fps= 11 q=12.0 size=    1536KiB time=00:00:04.46 bitrate=2817.1kbits/s speed=0.178x elapsed=0:00:25.15    \nframe=  274 fps= 11 q=12.0 size=    1536KiB time=00:00:04.56 bitrate=2755.4kbits/s speed=0.178x elapsed=0:00:25.69    \nframe=  276 fps= 11 q=12.0 size=    1536KiB time=00:00:04.60 bitrate=2735.4kbits/s speed=0.175x elapsed=0:00:26.24    \nframe=  276 fps= 10 q=12.0 size=    1536KiB time=00:00:04.60 bitrate=2735.4kbits/s speed=0.172x elapsed=0:00:26.80    \nframe=  276 fps= 10 q=12.0 size=    1536KiB time=00:00:04.60 bitrate=2735.4kbits/s speed=0.168x elapsed=0:00:27.37    \nframe=  276 fps=9.9 q=12.0 size=    1536KiB time=00:00:04.60 bitrate=2735.4kbits/s speed=0.165x elapsed=0:00:27.92    \n[out#0/webm @ 0000028ac19c9780] video:1918KiB audio:0KiB subtitle:0KiB other streams:0KiB global headers:0KiB muxing overhead: 0.144820%\nframe=  300 fps= 11 q=12.0 Lsize=    1921KiB time=00:00:05.00 bitrate=3147.8kbits/s speed=0.176x elapsed=0:00:28.39    \n",
  "seconds": 28.712280750274658,
  "probe_out": {}
}